<mxfile host="app.diagrams.net" modified="2024-02-21T04:39:22.081Z" agent="Mozilla/5.0 (Windows NT 10.0; Win64; x64) AppleWebKit/537.36 (KHTML, like Gecko) Chrome/121.0.0.0 Safari/537.36" etag="vrvU-GGeEYHprUkErnCp" version="23.1.5" type="device">
  <diagram name="Page-1" id="aXVfdZGeNpqf7rzhV6KS">
    <mxGraphModel dx="724" dy="384" grid="1" gridSize="10" guides="1" tooltips="1" connect="1" arrows="1" fold="1" page="1" pageScale="1" pageWidth="850" pageHeight="1100" math="0" shadow="0">
      <root>
        <mxCell id="0" />
        <mxCell id="1" parent="0" />
        <mxCell id="xXVawUEWtaECDBK311aL-2" value="Actor" style="shape=umlActor;verticalLabelPosition=bottom;verticalAlign=top;html=1;" vertex="1" parent="1">
          <mxGeometry x="40" y="41" width="30" height="50" as="geometry" />
        </mxCell>
        <mxCell id="xXVawUEWtaECDBK311aL-4" value="&lt;font style=&quot;font-size: 8px;&quot;&gt;Registrar&lt;br&gt;Usuario&lt;/font&gt;" style="shape=umlBoundary;whiteSpace=wrap;html=1;" vertex="1" parent="1">
          <mxGeometry x="110" y="20" width="60" height="50" as="geometry" />
        </mxCell>
        <mxCell id="xXVawUEWtaECDBK311aL-5" value="Inicio de sesion" style="shape=umlBoundary;whiteSpace=wrap;html=1;fontSize=8;" vertex="1" parent="1">
          <mxGeometry x="110" y="80" width="60" height="50" as="geometry" />
        </mxCell>
        <mxCell id="xXVawUEWtaECDBK311aL-6" value="Ventas diarias" style="shape=umlBoundary;whiteSpace=wrap;html=1;fontSize=8;" vertex="1" parent="1">
          <mxGeometry x="110" y="380" width="60" height="50" as="geometry" />
        </mxCell>
        <mxCell id="xXVawUEWtaECDBK311aL-7" value="Cierre de sesion" style="shape=umlBoundary;whiteSpace=wrap;html=1;fontSize=8;" vertex="1" parent="1">
          <mxGeometry x="110" y="500" width="60" height="50" as="geometry" />
        </mxCell>
        <mxCell id="xXVawUEWtaECDBK311aL-8" value="Horarios de operadores" style="shape=umlBoundary;whiteSpace=wrap;html=1;fontSize=8;" vertex="1" parent="1">
          <mxGeometry x="110" y="440" width="60" height="50" as="geometry" />
        </mxCell>
        <mxCell id="xXVawUEWtaECDBK311aL-9" value="Registro de entregas" style="shape=umlBoundary;whiteSpace=wrap;html=1;fontSize=8;" vertex="1" parent="1">
          <mxGeometry x="110" y="320" width="60" height="50" as="geometry" />
        </mxCell>
        <mxCell id="xXVawUEWtaECDBK311aL-10" value="Proveedores" style="shape=umlBoundary;whiteSpace=wrap;html=1;fontSize=8;" vertex="1" parent="1">
          <mxGeometry x="110" y="260" width="60" height="50" as="geometry" />
        </mxCell>
        <mxCell id="xXVawUEWtaECDBK311aL-11" value="Inventario" style="shape=umlBoundary;whiteSpace=wrap;html=1;fontSize=8;" vertex="1" parent="1">
          <mxGeometry x="110" y="200" width="60" height="50" as="geometry" />
        </mxCell>
        <mxCell id="xXVawUEWtaECDBK311aL-12" value="Venta de producto" style="shape=umlBoundary;whiteSpace=wrap;html=1;fontSize=8;" vertex="1" parent="1">
          <mxGeometry x="110" y="140" width="60" height="50" as="geometry" />
        </mxCell>
        <mxCell id="xXVawUEWtaECDBK311aL-13" value="" style="endArrow=classic;html=1;rounded=0;" edge="1" parent="1">
          <mxGeometry width="50" height="50" relative="1" as="geometry">
            <mxPoint x="50" y="284.71" as="sourcePoint" />
            <mxPoint x="110" y="284.71" as="targetPoint" />
          </mxGeometry>
        </mxCell>
        <mxCell id="xXVawUEWtaECDBK311aL-14" value="" style="endArrow=classic;html=1;rounded=0;" edge="1" parent="1">
          <mxGeometry width="50" height="50" relative="1" as="geometry">
            <mxPoint x="50" y="224.70999999999998" as="sourcePoint" />
            <mxPoint x="110" y="224.70999999999998" as="targetPoint" />
          </mxGeometry>
        </mxCell>
        <mxCell id="xXVawUEWtaECDBK311aL-15" value="" style="endArrow=classic;html=1;rounded=0;" edge="1" parent="1">
          <mxGeometry width="50" height="50" relative="1" as="geometry">
            <mxPoint x="80" y="45" as="sourcePoint" />
            <mxPoint x="110" y="44.70999999999998" as="targetPoint" />
          </mxGeometry>
        </mxCell>
        <mxCell id="xXVawUEWtaECDBK311aL-16" value="" style="endArrow=classic;html=1;rounded=0;" edge="1" parent="1">
          <mxGeometry width="50" height="50" relative="1" as="geometry">
            <mxPoint x="50" y="344.71" as="sourcePoint" />
            <mxPoint x="110" y="344.71" as="targetPoint" />
          </mxGeometry>
        </mxCell>
        <mxCell id="xXVawUEWtaECDBK311aL-17" value="" style="endArrow=classic;html=1;rounded=0;" edge="1" parent="1">
          <mxGeometry width="50" height="50" relative="1" as="geometry">
            <mxPoint x="50" y="404.71" as="sourcePoint" />
            <mxPoint x="110" y="404.71" as="targetPoint" />
          </mxGeometry>
        </mxCell>
        <mxCell id="xXVawUEWtaECDBK311aL-18" value="" style="endArrow=classic;html=1;rounded=0;" edge="1" parent="1">
          <mxGeometry width="50" height="50" relative="1" as="geometry">
            <mxPoint x="50" y="524.71" as="sourcePoint" />
            <mxPoint x="110" y="524.71" as="targetPoint" />
          </mxGeometry>
        </mxCell>
        <mxCell id="xXVawUEWtaECDBK311aL-19" value="" style="endArrow=classic;html=1;rounded=0;" edge="1" parent="1">
          <mxGeometry width="50" height="50" relative="1" as="geometry">
            <mxPoint x="50" y="464.71" as="sourcePoint" />
            <mxPoint x="110" y="464.71" as="targetPoint" />
          </mxGeometry>
        </mxCell>
        <mxCell id="xXVawUEWtaECDBK311aL-20" value="" style="endArrow=classic;html=1;rounded=0;" edge="1" parent="1">
          <mxGeometry width="50" height="50" relative="1" as="geometry">
            <mxPoint x="80" y="105" as="sourcePoint" />
            <mxPoint x="110" y="104.70999999999998" as="targetPoint" />
          </mxGeometry>
        </mxCell>
        <mxCell id="xXVawUEWtaECDBK311aL-21" value="" style="endArrow=classic;html=1;rounded=0;" edge="1" parent="1">
          <mxGeometry width="50" height="50" relative="1" as="geometry">
            <mxPoint x="50" y="164.70999999999998" as="sourcePoint" />
            <mxPoint x="110" y="164.70999999999998" as="targetPoint" />
          </mxGeometry>
        </mxCell>
        <mxCell id="xXVawUEWtaECDBK311aL-24" value="" style="endArrow=none;html=1;rounded=0;" edge="1" parent="1">
          <mxGeometry width="50" height="50" relative="1" as="geometry">
            <mxPoint x="80" y="110" as="sourcePoint" />
            <mxPoint x="80" y="40" as="targetPoint" />
          </mxGeometry>
        </mxCell>
        <mxCell id="xXVawUEWtaECDBK311aL-25" value="" style="endArrow=none;html=1;rounded=0;" edge="1" parent="1">
          <mxGeometry width="50" height="50" relative="1" as="geometry">
            <mxPoint x="30" y="110" as="sourcePoint" />
            <mxPoint x="80" y="110" as="targetPoint" />
          </mxGeometry>
        </mxCell>
        <mxCell id="xXVawUEWtaECDBK311aL-26" value="" style="endArrow=none;html=1;rounded=0;" edge="1" parent="1">
          <mxGeometry width="50" height="50" relative="1" as="geometry">
            <mxPoint x="30" y="110" as="sourcePoint" />
            <mxPoint x="30" y="40" as="targetPoint" />
          </mxGeometry>
        </mxCell>
        <mxCell id="xXVawUEWtaECDBK311aL-27" value="" style="endArrow=none;html=1;rounded=0;" edge="1" parent="1">
          <mxGeometry width="50" height="50" relative="1" as="geometry">
            <mxPoint x="80" y="40" as="sourcePoint" />
            <mxPoint x="30" y="40" as="targetPoint" />
          </mxGeometry>
        </mxCell>
        <mxCell id="xXVawUEWtaECDBK311aL-28" value="" style="endArrow=none;html=1;rounded=0;" edge="1" parent="1">
          <mxGeometry width="50" height="50" relative="1" as="geometry">
            <mxPoint x="50" y="525" as="sourcePoint" />
            <mxPoint x="50" y="110" as="targetPoint" />
          </mxGeometry>
        </mxCell>
        <mxCell id="xXVawUEWtaECDBK311aL-29" value="vista de lista" style="ellipse;shape=umlControl;whiteSpace=wrap;html=1;fontSize=6;" vertex="1" parent="1">
          <mxGeometry x="190" y="1" width="30" height="35" as="geometry" />
        </mxCell>
        <mxCell id="xXVawUEWtaECDBK311aL-31" value="Vista de formulario&lt;span style=&quot;white-space: pre; font-size: 6px;&quot;&gt;&#x9;&lt;/span&gt;" style="ellipse;shape=umlControl;whiteSpace=wrap;html=1;fontSize=6;" vertex="1" parent="1">
          <mxGeometry x="250" y="1" width="30" height="35" as="geometry" />
        </mxCell>
        <mxCell id="xXVawUEWtaECDBK311aL-32" value="Usuario registrado" style="ellipse;shape=umlEntity;whiteSpace=wrap;html=1;fontSize=6;" vertex="1" parent="1">
          <mxGeometry x="370" width="30" height="29" as="geometry" />
        </mxCell>
        <mxCell id="xXVawUEWtaECDBK311aL-33" value="Guardar datos" style="ellipse;shape=umlControl;whiteSpace=wrap;html=1;fontSize=6;" vertex="1" parent="1">
          <mxGeometry x="300" y="15" width="30" height="35" as="geometry" />
        </mxCell>
        <mxCell id="xXVawUEWtaECDBK311aL-41" value="" style="endArrow=classic;html=1;rounded=0;exitX=1;exitY=0.407;exitDx=0;exitDy=0;exitPerimeter=0;entryX=0;entryY=0.767;entryDx=0;entryDy=0;entryPerimeter=0;" edge="1" parent="1" source="xXVawUEWtaECDBK311aL-33" target="xXVawUEWtaECDBK311aL-32">
          <mxGeometry width="50" height="50" relative="1" as="geometry">
            <mxPoint x="440" y="190" as="sourcePoint" />
            <mxPoint x="490" y="140" as="targetPoint" />
          </mxGeometry>
        </mxCell>
        <mxCell id="xXVawUEWtaECDBK311aL-42" value="" style="endArrow=classic;html=1;rounded=0;exitX=1;exitY=0.407;exitDx=0;exitDy=0;exitPerimeter=0;entryX=0.033;entryY=0.479;entryDx=0;entryDy=0;entryPerimeter=0;" edge="1" parent="1" target="xXVawUEWtaECDBK311aL-33">
          <mxGeometry width="50" height="50" relative="1" as="geometry">
            <mxPoint x="280" y="22" as="sourcePoint" />
            <mxPoint x="320" y="15" as="targetPoint" />
          </mxGeometry>
        </mxCell>
        <mxCell id="xXVawUEWtaECDBK311aL-43" value="" style="endArrow=classic;html=1;rounded=0;exitX=1;exitY=0.407;exitDx=0;exitDy=0;exitPerimeter=0;entryX=0.067;entryY=0.807;entryDx=0;entryDy=0;entryPerimeter=0;" edge="1" parent="1" target="xXVawUEWtaECDBK311aL-29">
          <mxGeometry width="50" height="50" relative="1" as="geometry">
            <mxPoint x="170" y="36" as="sourcePoint" />
            <mxPoint x="210" y="29" as="targetPoint" />
          </mxGeometry>
        </mxCell>
        <mxCell id="xXVawUEWtaECDBK311aL-44" value="" style="endArrow=classic;html=1;rounded=0;exitX=1;exitY=0.407;exitDx=0;exitDy=0;exitPerimeter=0;entryX=0.05;entryY=0.564;entryDx=0;entryDy=0;entryPerimeter=0;" edge="1" parent="1" target="xXVawUEWtaECDBK311aL-31">
          <mxGeometry width="50" height="50" relative="1" as="geometry">
            <mxPoint x="220" y="22" as="sourcePoint" />
            <mxPoint x="260" y="15" as="targetPoint" />
          </mxGeometry>
        </mxCell>
        <mxCell id="xXVawUEWtaECDBK311aL-45" value="vista de lista" style="ellipse;shape=umlControl;whiteSpace=wrap;html=1;fontSize=6;" vertex="1" parent="1">
          <mxGeometry x="310" y="70" width="30" height="35" as="geometry" />
        </mxCell>
        <mxCell id="xXVawUEWtaECDBK311aL-46" value="Valida Datos de inicio de sesion" style="ellipse;shape=umlControl;whiteSpace=wrap;html=1;fontSize=6;" vertex="1" parent="1">
          <mxGeometry x="230" y="70" width="40" height="39.5" as="geometry" />
        </mxCell>
        <mxCell id="xXVawUEWtaECDBK311aL-48" value="" style="endArrow=classic;html=1;rounded=0;exitX=0.951;exitY=0.31;exitDx=0;exitDy=0;exitPerimeter=0;entryX=-0.032;entryY=0.583;entryDx=0;entryDy=0;entryPerimeter=0;" edge="1" parent="1" source="xXVawUEWtaECDBK311aL-5" target="xXVawUEWtaECDBK311aL-46">
          <mxGeometry width="50" height="50" relative="1" as="geometry">
            <mxPoint x="260" y="230" as="sourcePoint" />
            <mxPoint x="310" y="180" as="targetPoint" />
          </mxGeometry>
        </mxCell>
        <mxCell id="xXVawUEWtaECDBK311aL-49" value="" style="endArrow=classic;html=1;rounded=0;exitX=0.992;exitY=0.53;exitDx=0;exitDy=0;exitPerimeter=0;" edge="1" parent="1" source="xXVawUEWtaECDBK311aL-46">
          <mxGeometry width="50" height="50" relative="1" as="geometry">
            <mxPoint x="260" y="230" as="sourcePoint" />
            <mxPoint x="310" y="89" as="targetPoint" />
          </mxGeometry>
        </mxCell>
        <mxCell id="xXVawUEWtaECDBK311aL-51" value="Reintentar" style="ellipse;shape=umlControl;whiteSpace=wrap;html=1;fontSize=6;" vertex="1" parent="1">
          <mxGeometry x="375" y="70" width="30" height="35" as="geometry" />
        </mxCell>
        <mxCell id="xXVawUEWtaECDBK311aL-52" value="" style="endArrow=classic;html=1;rounded=0;entryX=-0.017;entryY=0.372;entryDx=0;entryDy=0;entryPerimeter=0;exitX=1.083;exitY=0.42;exitDx=0;exitDy=0;exitPerimeter=0;" edge="1" parent="1" source="xXVawUEWtaECDBK311aL-45" target="xXVawUEWtaECDBK311aL-51">
          <mxGeometry width="50" height="50" relative="1" as="geometry">
            <mxPoint x="470" y="70" as="sourcePoint" />
            <mxPoint x="286" y="100" as="targetPoint" />
          </mxGeometry>
        </mxCell>
        <mxCell id="xXVawUEWtaECDBK311aL-53" value="Avisar al administrador" style="ellipse;shape=umlEntity;whiteSpace=wrap;html=1;fontSize=6;" vertex="1" parent="1">
          <mxGeometry x="490" y="91" width="30" height="29" as="geometry" />
        </mxCell>
        <mxCell id="xXVawUEWtaECDBK311aL-54" value="Ingresa al sistema" style="ellipse;shape=umlEntity;whiteSpace=wrap;html=1;fontSize=6;" vertex="1" parent="1">
          <mxGeometry x="425" y="105" width="30" height="29" as="geometry" />
        </mxCell>
        <mxCell id="xXVawUEWtaECDBK311aL-55" value="" style="endArrow=classic;html=1;rounded=0;exitX=0.998;exitY=0.566;exitDx=0;exitDy=0;exitPerimeter=0;entryX=0;entryY=0.5;entryDx=0;entryDy=0;" edge="1" parent="1" source="xXVawUEWtaECDBK311aL-51" target="xXVawUEWtaECDBK311aL-53">
          <mxGeometry width="50" height="50" relative="1" as="geometry">
            <mxPoint x="323" y="104" as="sourcePoint" />
            <mxPoint x="368" y="118" as="targetPoint" />
          </mxGeometry>
        </mxCell>
        <mxCell id="xXVawUEWtaECDBK311aL-56" value="" style="endArrow=classic;html=1;rounded=0;exitX=0.755;exitY=0.94;exitDx=0;exitDy=0;exitPerimeter=0;entryX=0;entryY=0.5;entryDx=0;entryDy=0;" edge="1" parent="1" source="xXVawUEWtaECDBK311aL-51" target="xXVawUEWtaECDBK311aL-54">
          <mxGeometry width="50" height="50" relative="1" as="geometry">
            <mxPoint x="333" y="114" as="sourcePoint" />
            <mxPoint x="378" y="128" as="targetPoint" />
          </mxGeometry>
        </mxCell>
        <mxCell id="xXVawUEWtaECDBK311aL-57" value="Selecciona productos" style="ellipse;shape=umlControl;whiteSpace=wrap;html=1;fontSize=6;" vertex="1" parent="1">
          <mxGeometry x="190" y="147.5" width="30" height="35" as="geometry" />
        </mxCell>
        <mxCell id="xXVawUEWtaECDBK311aL-60" value="Revisa Stock" style="ellipse;shape=umlControl;whiteSpace=wrap;html=1;fontSize=6;" vertex="1" parent="1">
          <mxGeometry x="250" y="147.5" width="30" height="35" as="geometry" />
        </mxCell>
        <mxCell id="xXVawUEWtaECDBK311aL-61" value="No hay productos" style="ellipse;shape=umlControl;whiteSpace=wrap;html=1;fontSize=6;" vertex="1" parent="1">
          <mxGeometry x="300" y="120" width="30" height="35" as="geometry" />
        </mxCell>
        <mxCell id="xXVawUEWtaECDBK311aL-62" value="Agrega productos" style="ellipse;shape=umlControl;whiteSpace=wrap;html=1;fontSize=6;" vertex="1" parent="1">
          <mxGeometry x="300" y="165" width="30" height="35" as="geometry" />
        </mxCell>
        <mxCell id="xXVawUEWtaECDBK311aL-63" value="Agregar mas productos" style="ellipse;shape=umlControl;whiteSpace=wrap;html=1;fontSize=6;" vertex="1" parent="1">
          <mxGeometry x="365" y="143.75" width="40" height="42.5" as="geometry" />
        </mxCell>
        <mxCell id="xXVawUEWtaECDBK311aL-66" value="Se venden los productos" style="ellipse;shape=umlEntity;whiteSpace=wrap;html=1;fontSize=6;" vertex="1" parent="1">
          <mxGeometry x="550" y="161" width="50" height="49" as="geometry" />
        </mxCell>
        <mxCell id="xXVawUEWtaECDBK311aL-67" value="" style="endArrow=classic;html=1;rounded=0;entryX=0.053;entryY=0.483;entryDx=0;entryDy=0;entryPerimeter=0;exitX=1.011;exitY=0.542;exitDx=0;exitDy=0;exitPerimeter=0;" edge="1" parent="1" source="xXVawUEWtaECDBK311aL-63" target="xXVawUEWtaECDBK311aL-64">
          <mxGeometry width="50" height="50" relative="1" as="geometry">
            <mxPoint x="390" y="170" as="sourcePoint" />
            <mxPoint x="402" y="162" as="targetPoint" />
          </mxGeometry>
        </mxCell>
        <mxCell id="xXVawUEWtaECDBK311aL-68" value="" style="endArrow=classic;html=1;rounded=0;exitX=0.955;exitY=0.825;exitDx=0;exitDy=0;exitPerimeter=0;entryX=0.056;entryY=0.35;entryDx=0;entryDy=0;entryPerimeter=0;" edge="1" parent="1" source="xXVawUEWtaECDBK311aL-61" target="xXVawUEWtaECDBK311aL-63">
          <mxGeometry width="50" height="50" relative="1" as="geometry">
            <mxPoint x="328" y="136" as="sourcePoint" />
            <mxPoint x="350" y="130" as="targetPoint" />
          </mxGeometry>
        </mxCell>
        <mxCell id="xXVawUEWtaECDBK311aL-69" value="" style="endArrow=classic;html=1;rounded=0;exitX=0.951;exitY=0.31;exitDx=0;exitDy=0;exitPerimeter=0;entryX=0.056;entryY=0.734;entryDx=0;entryDy=0;entryPerimeter=0;" edge="1" parent="1" target="xXVawUEWtaECDBK311aL-63">
          <mxGeometry width="50" height="50" relative="1" as="geometry">
            <mxPoint x="328" y="179.5" as="sourcePoint" />
            <mxPoint x="350" y="173.5" as="targetPoint" />
          </mxGeometry>
        </mxCell>
        <mxCell id="xXVawUEWtaECDBK311aL-70" value="" style="endArrow=classic;html=1;rounded=0;entryX=-0.048;entryY=0.691;entryDx=0;entryDy=0;entryPerimeter=0;exitX=0.667;exitY=0.929;exitDx=0;exitDy=0;exitPerimeter=0;" edge="1" parent="1" source="xXVawUEWtaECDBK311aL-60" target="xXVawUEWtaECDBK311aL-62">
          <mxGeometry width="50" height="50" relative="1" as="geometry">
            <mxPoint x="280" y="180" as="sourcePoint" />
            <mxPoint x="292" y="173.5" as="targetPoint" />
          </mxGeometry>
        </mxCell>
        <mxCell id="xXVawUEWtaECDBK311aL-71" value="" style="endArrow=classic;html=1;rounded=0;exitX=0.951;exitY=0.31;exitDx=0;exitDy=0;exitPerimeter=0;entryX=0.016;entryY=0.661;entryDx=0;entryDy=0;entryPerimeter=0;" edge="1" parent="1" target="xXVawUEWtaECDBK311aL-61">
          <mxGeometry width="50" height="50" relative="1" as="geometry">
            <mxPoint x="278" y="161" as="sourcePoint" />
            <mxPoint x="300" y="155" as="targetPoint" />
          </mxGeometry>
        </mxCell>
        <mxCell id="xXVawUEWtaECDBK311aL-72" value="" style="endArrow=classic;html=1;rounded=0;exitX=0.951;exitY=0.31;exitDx=0;exitDy=0;exitPerimeter=0;entryX=-0.152;entryY=0.625;entryDx=0;entryDy=0;entryPerimeter=0;" edge="1" parent="1" target="xXVawUEWtaECDBK311aL-60">
          <mxGeometry width="50" height="50" relative="1" as="geometry">
            <mxPoint x="220" y="168" as="sourcePoint" />
            <mxPoint x="242" y="162" as="targetPoint" />
          </mxGeometry>
        </mxCell>
        <mxCell id="xXVawUEWtaECDBK311aL-73" value="" style="endArrow=classic;html=1;rounded=0;exitX=0.988;exitY=0.549;exitDx=0;exitDy=0;exitPerimeter=0;entryX=-0.029;entryY=0.643;entryDx=0;entryDy=0;entryPerimeter=0;" edge="1" parent="1" source="xXVawUEWtaECDBK311aL-12" target="xXVawUEWtaECDBK311aL-57">
          <mxGeometry width="50" height="50" relative="1" as="geometry">
            <mxPoint x="237" y="166" as="sourcePoint" />
            <mxPoint x="259" y="160" as="targetPoint" />
          </mxGeometry>
        </mxCell>
        <mxCell id="xXVawUEWtaECDBK311aL-75" value="" style="endArrow=classic;html=1;rounded=0;entryX=0;entryY=0.5;entryDx=0;entryDy=0;" edge="1" parent="1" source="xXVawUEWtaECDBK311aL-64" target="xXVawUEWtaECDBK311aL-66">
          <mxGeometry width="50" height="50" relative="1" as="geometry">
            <mxPoint x="440" y="170" as="sourcePoint" />
            <mxPoint x="269" y="170" as="targetPoint" />
          </mxGeometry>
        </mxCell>
        <mxCell id="xXVawUEWtaECDBK311aL-78" value="" style="endArrow=none;html=1;rounded=0;exitX=1.009;exitY=0.45;exitDx=0;exitDy=0;exitPerimeter=0;entryX=0.296;entryY=0.954;entryDx=0;entryDy=0;entryPerimeter=0;" edge="1" parent="1" source="xXVawUEWtaECDBK311aL-11" target="xXVawUEWtaECDBK311aL-60">
          <mxGeometry width="50" height="50" relative="1" as="geometry">
            <mxPoint x="290" y="280" as="sourcePoint" />
            <mxPoint x="340" y="230" as="targetPoint" />
          </mxGeometry>
        </mxCell>
        <mxCell id="xXVawUEWtaECDBK311aL-79" value="Muestra inventario" style="ellipse;shape=umlEntity;whiteSpace=wrap;html=1;fontSize=6;" vertex="1" parent="1">
          <mxGeometry x="250" y="210.5" width="30" height="29" as="geometry" />
        </mxCell>
        <mxCell id="xXVawUEWtaECDBK311aL-80" value="" style="endArrow=classic;html=1;rounded=0;exitX=0.967;exitY=0.475;exitDx=0;exitDy=0;exitPerimeter=0;entryX=0;entryY=0.5;entryDx=0;entryDy=0;" edge="1" parent="1" source="xXVawUEWtaECDBK311aL-11" target="xXVawUEWtaECDBK311aL-79">
          <mxGeometry width="50" height="50" relative="1" as="geometry">
            <mxPoint x="290" y="280" as="sourcePoint" />
            <mxPoint x="340" y="230" as="targetPoint" />
          </mxGeometry>
        </mxCell>
        <mxCell id="xXVawUEWtaECDBK311aL-64" value="Se genera la cuenta de los productos seleccionados&lt;div&gt;&lt;br/&gt;&lt;/div&gt;" style="ellipse;shape=umlControl;whiteSpace=wrap;html=1;fontSize=6;" vertex="1" parent="1">
          <mxGeometry x="440" y="147.5" width="60" height="62.5" as="geometry" />
        </mxCell>
        <mxCell id="xXVawUEWtaECDBK311aL-83" value="Muestra proveedores activos" style="ellipse;shape=umlEntity;whiteSpace=wrap;html=1;fontSize=6;" vertex="1" parent="1">
          <mxGeometry x="490" y="243" width="40" height="38" as="geometry" />
        </mxCell>
        <mxCell id="xXVawUEWtaECDBK311aL-89" value="Valida datos de proveedores" style="ellipse;shape=umlControl;whiteSpace=wrap;html=1;fontSize=6;" vertex="1" parent="1">
          <mxGeometry x="365" y="236" width="40" height="45" as="geometry" />
        </mxCell>
        <mxCell id="xXVawUEWtaECDBK311aL-91" value="Vista lista&lt;span style=&quot;white-space: pre;&quot;&gt;&#x9;&lt;/span&gt;" style="ellipse;shape=umlControl;whiteSpace=wrap;html=1;fontSize=6;" vertex="1" parent="1">
          <mxGeometry x="200" y="250" width="30" height="35" as="geometry" />
        </mxCell>
        <mxCell id="xXVawUEWtaECDBK311aL-92" value="" style="endArrow=classic;html=1;rounded=0;exitX=0.988;exitY=0.549;exitDx=0;exitDy=0;exitPerimeter=0;entryX=-0.029;entryY=0.643;entryDx=0;entryDy=0;entryPerimeter=0;" edge="1" parent="1">
          <mxGeometry width="50" height="50" relative="1" as="geometry">
            <mxPoint x="179" y="177" as="sourcePoint" />
            <mxPoint x="199" y="180" as="targetPoint" />
          </mxGeometry>
        </mxCell>
        <mxCell id="xXVawUEWtaECDBK311aL-93" value="" style="endArrow=classic;html=1;rounded=0;exitX=0.988;exitY=0.549;exitDx=0;exitDy=0;exitPerimeter=0;entryX=0.062;entryY=0.42;entryDx=0;entryDy=0;entryPerimeter=0;" edge="1" parent="1" target="xXVawUEWtaECDBK311aL-91">
          <mxGeometry width="50" height="50" relative="1" as="geometry">
            <mxPoint x="170" y="280.5" as="sourcePoint" />
            <mxPoint x="190" y="283.5" as="targetPoint" />
          </mxGeometry>
        </mxCell>
        <mxCell id="xXVawUEWtaECDBK311aL-95" value="" style="endArrow=classic;html=1;rounded=0;exitX=0.988;exitY=0.549;exitDx=0;exitDy=0;exitPerimeter=0;entryX=0.029;entryY=0.369;entryDx=0;entryDy=0;entryPerimeter=0;" edge="1" parent="1" source="xXVawUEWtaECDBK311aL-90" target="xXVawUEWtaECDBK311aL-89">
          <mxGeometry width="50" height="50" relative="1" as="geometry">
            <mxPoint x="268" y="270.25" as="sourcePoint" />
            <mxPoint x="290" y="271.75" as="targetPoint" />
          </mxGeometry>
        </mxCell>
        <mxCell id="xXVawUEWtaECDBK311aL-96" value="" style="endArrow=classic;html=1;rounded=0;exitX=1.036;exitY=0.608;exitDx=0;exitDy=0;exitPerimeter=0;entryX=-0.032;entryY=0.794;entryDx=0;entryDy=0;entryPerimeter=0;" edge="1" parent="1" source="xXVawUEWtaECDBK311aL-89" target="xXVawUEWtaECDBK311aL-83">
          <mxGeometry width="50" height="50" relative="1" as="geometry">
            <mxPoint x="330" y="296.75" as="sourcePoint" />
            <mxPoint x="352" y="298.25" as="targetPoint" />
          </mxGeometry>
        </mxCell>
        <mxCell id="xXVawUEWtaECDBK311aL-97" value="" style="endArrow=classic;html=1;rounded=0;exitX=1.018;exitY=0.373;exitDx=0;exitDy=0;exitPerimeter=0;entryX=-0.069;entryY=0.604;entryDx=0;entryDy=0;entryPerimeter=0;" edge="1" parent="1" source="xXVawUEWtaECDBK311aL-91" target="xXVawUEWtaECDBK311aL-90">
          <mxGeometry width="50" height="50" relative="1" as="geometry">
            <mxPoint x="268" y="270.25" as="sourcePoint" />
            <mxPoint x="366" y="253" as="targetPoint" />
          </mxGeometry>
        </mxCell>
        <mxCell id="xXVawUEWtaECDBK311aL-90" value="Vista formulario" style="ellipse;shape=umlControl;whiteSpace=wrap;html=1;fontSize=6;" vertex="1" parent="1">
          <mxGeometry x="280" y="244.5" width="30" height="35" as="geometry" />
        </mxCell>
        <mxCell id="xXVawUEWtaECDBK311aL-98" value="Vista de lista de las entregas de los proveedores" style="ellipse;shape=umlEntity;whiteSpace=wrap;html=1;fontSize=6;" vertex="1" parent="1">
          <mxGeometry x="340" y="320" width="50" height="50" as="geometry" />
        </mxCell>
        <mxCell id="xXVawUEWtaECDBK311aL-99" value="" style="endArrow=classic;html=1;rounded=0;entryX=0;entryY=0.5;entryDx=0;entryDy=0;exitX=0.993;exitY=0.524;exitDx=0;exitDy=0;exitPerimeter=0;" edge="1" parent="1" source="xXVawUEWtaECDBK311aL-100" target="xXVawUEWtaECDBK311aL-98">
          <mxGeometry width="50" height="50" relative="1" as="geometry">
            <mxPoint x="300" y="345" as="sourcePoint" />
            <mxPoint x="320" y="280" as="targetPoint" />
          </mxGeometry>
        </mxCell>
        <mxCell id="xXVawUEWtaECDBK311aL-100" value="Valida datos de proveedores" style="ellipse;shape=umlControl;whiteSpace=wrap;html=1;fontSize=6;" vertex="1" parent="1">
          <mxGeometry x="220" y="320" width="50" height="50" as="geometry" />
        </mxCell>
        <mxCell id="xXVawUEWtaECDBK311aL-101" value="" style="endArrow=classic;html=1;rounded=0;entryX=0.022;entryY=0.546;entryDx=0;entryDy=0;exitX=0.993;exitY=0.524;exitDx=0;exitDy=0;exitPerimeter=0;entryPerimeter=0;" edge="1" parent="1" target="xXVawUEWtaECDBK311aL-100">
          <mxGeometry width="50" height="50" relative="1" as="geometry">
            <mxPoint x="170" y="345.5" as="sourcePoint" />
            <mxPoint x="240" y="344.5" as="targetPoint" />
          </mxGeometry>
        </mxCell>
        <mxCell id="xXVawUEWtaECDBK311aL-102" value="Vista de lista de los horarios de los operadores" style="ellipse;shape=umlEntity;whiteSpace=wrap;html=1;fontSize=6;" vertex="1" parent="1">
          <mxGeometry x="340" y="440" width="50" height="50" as="geometry" />
        </mxCell>
        <mxCell id="xXVawUEWtaECDBK311aL-103" value="" style="endArrow=classic;html=1;rounded=0;entryX=0;entryY=0.5;entryDx=0;entryDy=0;exitX=0.993;exitY=0.524;exitDx=0;exitDy=0;exitPerimeter=0;" edge="1" parent="1" source="xXVawUEWtaECDBK311aL-104" target="xXVawUEWtaECDBK311aL-102">
          <mxGeometry width="50" height="50" relative="1" as="geometry">
            <mxPoint x="300" y="465" as="sourcePoint" />
            <mxPoint x="320" y="400" as="targetPoint" />
          </mxGeometry>
        </mxCell>
        <mxCell id="xXVawUEWtaECDBK311aL-104" value="Valida datos&amp;nbsp; los horarios de operadores" style="ellipse;shape=umlControl;whiteSpace=wrap;html=1;fontSize=6;" vertex="1" parent="1">
          <mxGeometry x="220" y="440" width="50" height="50" as="geometry" />
        </mxCell>
        <mxCell id="xXVawUEWtaECDBK311aL-105" value="" style="endArrow=classic;html=1;rounded=0;entryX=0.022;entryY=0.546;entryDx=0;entryDy=0;exitX=0.993;exitY=0.524;exitDx=0;exitDy=0;exitPerimeter=0;entryPerimeter=0;" edge="1" parent="1" target="xXVawUEWtaECDBK311aL-104">
          <mxGeometry width="50" height="50" relative="1" as="geometry">
            <mxPoint x="170" y="465.5" as="sourcePoint" />
            <mxPoint x="240" y="464.5" as="targetPoint" />
          </mxGeometry>
        </mxCell>
        <mxCell id="xXVawUEWtaECDBK311aL-106" value="Vista de lista de las ventas del dia" style="ellipse;shape=umlEntity;whiteSpace=wrap;html=1;fontSize=6;" vertex="1" parent="1">
          <mxGeometry x="340" y="380" width="50" height="50" as="geometry" />
        </mxCell>
        <mxCell id="xXVawUEWtaECDBK311aL-107" value="" style="endArrow=classic;html=1;rounded=0;entryX=0;entryY=0.5;entryDx=0;entryDy=0;exitX=0.993;exitY=0.524;exitDx=0;exitDy=0;exitPerimeter=0;" edge="1" parent="1" source="xXVawUEWtaECDBK311aL-108" target="xXVawUEWtaECDBK311aL-106">
          <mxGeometry width="50" height="50" relative="1" as="geometry">
            <mxPoint x="300" y="405" as="sourcePoint" />
            <mxPoint x="320" y="340" as="targetPoint" />
          </mxGeometry>
        </mxCell>
        <mxCell id="xXVawUEWtaECDBK311aL-108" value="Valida datos las ventas diarias" style="ellipse;shape=umlControl;whiteSpace=wrap;html=1;fontSize=6;" vertex="1" parent="1">
          <mxGeometry x="220" y="380" width="50" height="50" as="geometry" />
        </mxCell>
        <mxCell id="xXVawUEWtaECDBK311aL-109" value="" style="endArrow=classic;html=1;rounded=0;entryX=0.022;entryY=0.546;entryDx=0;entryDy=0;exitX=0.993;exitY=0.524;exitDx=0;exitDy=0;exitPerimeter=0;entryPerimeter=0;" edge="1" parent="1" target="xXVawUEWtaECDBK311aL-108">
          <mxGeometry width="50" height="50" relative="1" as="geometry">
            <mxPoint x="170" y="405.5" as="sourcePoint" />
            <mxPoint x="240" y="404.5" as="targetPoint" />
          </mxGeometry>
        </mxCell>
        <mxCell id="xXVawUEWtaECDBK311aL-110" value="Validacion de pregunta. Esta de acuerdo con sus datos?" style="ellipse;shape=umlControl;whiteSpace=wrap;html=1;fontSize=6;" vertex="1" parent="1">
          <mxGeometry x="220" y="510" width="60" height="60" as="geometry" />
        </mxCell>
        <mxCell id="xXVawUEWtaECDBK311aL-111" value="" style="endArrow=classic;html=1;rounded=0;exitX=0.874;exitY=0.24;exitDx=0;exitDy=0;exitPerimeter=0;entryX=0;entryY=0.5;entryDx=0;entryDy=0;" edge="1" parent="1" source="xXVawUEWtaECDBK311aL-110" target="xXVawUEWtaECDBK311aL-113">
          <mxGeometry width="50" height="50" relative="1" as="geometry">
            <mxPoint x="270" y="480" as="sourcePoint" />
            <mxPoint x="320" y="430" as="targetPoint" />
          </mxGeometry>
        </mxCell>
        <mxCell id="xXVawUEWtaECDBK311aL-112" value="" style="endArrow=classic;html=1;rounded=0;exitX=0.947;exitY=0.792;exitDx=0;exitDy=0;exitPerimeter=0;entryX=0;entryY=0.5;entryDx=0;entryDy=0;" edge="1" parent="1" source="xXVawUEWtaECDBK311aL-110" target="xXVawUEWtaECDBK311aL-114">
          <mxGeometry width="50" height="50" relative="1" as="geometry">
            <mxPoint x="280" y="560" as="sourcePoint" />
            <mxPoint x="330" y="510" as="targetPoint" />
          </mxGeometry>
        </mxCell>
        <mxCell id="xXVawUEWtaECDBK311aL-113" value="Cerrar sesion" style="ellipse;shape=umlEntity;whiteSpace=wrap;html=1;fontSize=6;" vertex="1" parent="1">
          <mxGeometry x="415" y="470" width="50" height="50" as="geometry" />
        </mxCell>
        <mxCell id="xXVawUEWtaECDBK311aL-114" value="Avisar al administrador" style="ellipse;shape=umlEntity;whiteSpace=wrap;html=1;fontSize=6;" vertex="1" parent="1">
          <mxGeometry x="355" y="550" width="50" height="50" as="geometry" />
        </mxCell>
        <mxCell id="xXVawUEWtaECDBK311aL-115" value="" style="endArrow=classic;html=1;rounded=0;exitX=0.978;exitY=0.599;exitDx=0;exitDy=0;exitPerimeter=0;entryX=-0.018;entryY=0.479;entryDx=0;entryDy=0;entryPerimeter=0;" edge="1" parent="1" source="xXVawUEWtaECDBK311aL-7" target="xXVawUEWtaECDBK311aL-110">
          <mxGeometry width="50" height="50" relative="1" as="geometry">
            <mxPoint x="170" y="531.5" as="sourcePoint" />
            <mxPoint x="248" y="548.5" as="targetPoint" />
          </mxGeometry>
        </mxCell>
      </root>
    </mxGraphModel>
  </diagram>
</mxfile>
